HIERARCHY
ROOT Hips
{
  OFFSET 0 0 0
  CHANNELS 6 Xposition Yposition Zposition Zrotation Xrotation Yrotation
  JOINT Spine
  {
    OFFSET 0.00000000 0.00000000 0.00000000
    CHANNELS 3 Zrotation Xrotation Yrotation
    JOINT Spine1
    {
      OFFSET 0.19000000 0.00000000 0.00000000
      CHANNELS 3 Zrotation Xrotation Yrotation
      JOINT Neck
      {
        OFFSET 0.22500000 0.00600000 0.00000000
        CHANNELS 3 Zrotation Xrotation Yrotation
        JOINT Head
        {
          OFFSET 0.14000000 0.00030878 0.00000000
          CHANNELS 3 Zrotation Xrotation Yrotation
          End Site
          {
            OFFSET 0.17000000 0.00000000 0.00000000
          }
        }
      }
      JOINT LeftShoulder
      {
        OFFSET 0.19800000 0.03700000 0.04300000
        CHANNELS 3 Zrotation Xrotation Yrotation
        JOINT LeftArm
        {
          OFFSET 0.08000000 0.00000000 0.00000000
          CHANNELS 3 Zrotation Xrotation Yrotation
          JOINT LeftForeArm
          {
            OFFSET 0.15200000 0.00000000 0.00000000
            CHANNELS 3 Zrotation Xrotation Yrotation
            JOINT LeftHand
            {
              OFFSET 0.17800000 0.00000000 0.00000000
              CHANNELS 3 Zrotation Xrotation Yrotation
              End Site
              {
                OFFSET 0.07200000 0.00000000 0.00000000
              }
            }
          }
        }
      }
      JOINT RightShoulder
      {
        OFFSET 0.19800000 0.03700000 -0.04300000
        CHANNELS 3 Zrotation Xrotation Yrotation
        JOINT RightArm
        {
          OFFSET 0.08000000 0.00000000 0.00151654
          CHANNELS 3 Zrotation Xrotation Yrotation
          JOINT RightForeArm
          {
            OFFSET 0.15200000 0.00000000 0.00000000
            CHANNELS 3 Zrotation Xrotation Yrotation
            JOINT RightHand
            {
              OFFSET 0.17800000 0.00000000 0.00000000
              CHANNELS 3 Zrotation Xrotation Yrotation
              End Site
              {
                OFFSET 0.07200000 0.00000000 0.00000000
              }
            }
          }
        }
      }
    }
  }
  JOINT LeftUpLeg
  {
    OFFSET 0.05984250 -0.07666000 0.04788790
    CHANNELS 3 Zrotation Xrotation Yrotation
    JOINT LeftLeg
    {
      OFFSET 0.16000000 0.00000000 0.00000000
      CHANNELS 3 Zrotation Xrotation Yrotation
      JOINT LeftFoot
      {
        OFFSET 0.18000000 0.00000000 0.00000000
        CHANNELS 3 Zrotation Xrotation Yrotation
        End Site
        {
          OFFSET 0.00000000 -0.10800000 0.00000000
        }
      }
    }
  }
  JOINT RightUpLeg
  {
    OFFSET 0.05984250 -0.07665980 -0.04788790
    CHANNELS 3 Zrotation Xrotation Yrotation
    JOINT RightLeg
    {
      OFFSET 0.16000000 0.00000000 0.00000000
      CHANNELS 3 Zrotation Xrotation Yrotation
      JOINT RightFoot
      {
        OFFSET 0.18000000 0.00000000 0.00000000
        CHANNELS 3 Zrotation Xrotation Yrotation
        End Site
        {
          OFFSET 0.00000000 -0.10800000 0.00000000
        }
      }
    }
  }
  JOINT Tail
  {
    OFFSET 0.06836960 -0.00722574 0.00000000
    CHANNELS 3 Zrotation Xrotation Yrotation
    JOINT Tail1
    {
      OFFSET 0.12000000 0.00000000 0.00000000
      CHANNELS 3 Zrotation Xrotation Yrotation
      End Site
      {
        OFFSET 0.12000000 0.00000000 0.00000000
      }
    }
  }
}
MOTION
Frames:	19
Frame Time:	0.0166667
0.0000000 0.4740770 0.0000000 -2.31289 -4.19501 -0.16928 -167.648 -3.63934 -3.3501 -8.55923 5.67851 -31.4757 -2.39358 -2.97952 -27.0768 -19.7463 85.6756 55.6367 -107.31 -31.5727 -139.859 111.087 -10.8248 -139.158 -69.0516 -11.3573 4.84751 -2.32889 1.20217 -2.24308 74.8906 -30.2899 43.8818 56.2442 -39.7122 -50.6409 -55.5247 -23.835 16.1159 -7.28151 -1.22558 7.7352 -132.924 0.164348 -18.6904 68.5158 18.3031 11.3593 56.5097 -4.01582 -6.83646 -123.135 -6.00718 0.11808 77.2267 -9.67936 -0.735934 52.0386 1.8087 -0.785978 0.812958 46.3636 -60.1374 9.69115 -17.8201 -5.25412 
-0.0000743 0.4744900 0.0007320 -2.53175 -4.35447 -0.27180 -167.857 -4.34027 -4.11998 -7.88143 5.15785 -32.3918 -1.00821 -4.16173 -25.2656 -27.6421 84.9664 63.0588 -107.705 -32.1803 -139.692 117.966 -14.2186 -137.775 -61.6391 -1.02053 -1.11353 -7.44164 0.633364 -2.28754 75.0619 -29.9902 43.7627 57.0097 -38.9714 -49.7647 -55.7595 -23.967 16.1589 -7.27779 -1.12754 7.14043 -132.745 0.0577583 -18.0867 68.7014 18.3316 10.8571 56.417 -3.8938 -6.70318 -122.877 -6.24942 0.16965 77.2194 -9.29835 -0.565449 52.0102 1.73485 -0.860367 0.924125 47.149 -60.0357 9.78792 -17.9787 -5.48152 
-0.0001935 0.4750400 0.0016981 -2.83624 -4.30977 -0.30962 -167.872 -5.09505 -5.53603 -7.44047 4.47296 -32.2108 0.173831 -4.76289 -23.8251 -32.9598 84.6508 67.6113 -107.633 -32.5956 -138.547 125.542 -18.034 -135.128 -52.988 4.08914 -6.59882 -10.9037 1.24673 -5.65987 74.9887 -29.8979 43.2863 57.9445 -38.3516 -48.8382 -55.9225 -24.2891 16.3168 -7.63126 -1.10045 6.86652 -132.507 0.143708 -17.7434 68.8819 18.6398 10.5274 56.5663 -3.84746 -6.65558 -122.404 -6.29217 0.187574 77.1262 -9.47005 -0.506758 51.8366 1.78956 -0.790204 1.04244 48.3458 -59.7362 9.74335 -18.7013 -5.38923 
-0.0004940 0.4755020 0.0030208 -3.02716 -4.21179 -0.08176 -168.229 -5.79295 -7.23553 -6.58302 3.60595 -31.4879 0.87419 -5.49897 -22.1668 -35.7704 84.1611 69.3326 -108.022 -33.3619 -138.051 126.427 -21.9644 -134.351 -54.087 8.39671 -6.46039 -17.6024 2.85191 -12.0446 74.9285 -29.8925 43.0639 58.9493 -37.3923 -48.3335 -55.9019 -24.4865 16.6042 -8.53357 -1.05979 6.33187 -132.364 0.258277 -17.3394 69.1427 18.8181 10.1129 56.3334 -3.77976 -6.59161 -122.054 -6.2411 0.273296 77.0194 -9.42547 -0.518103 52.0412 1.7966 -0.797846 1.17464 50.1742 -59.5261 9.39907 -20.0265 -5.11037 
-0.0012290 0.4759600 0.0049213 -3.12665 -3.96732 0.54907 -168.665 -6.31476 -8.65465 -5.76883 2.8502 -30.6749 1.81294 -5.95423 -20.9407 -47.7486 83.4307 79.9059 -108.286 -33.9652 -137.552 123.358 -20.326 -133.542 -57.4442 9.4869 -4.18583 -18.1334 1.58432 -8.39989 74.9833 -29.6527 42.6719 60.1245 -36.0568 -47.4607 -55.9866 -24.4533 16.5146 -9.64803 -1.0451 5.96814 -132.412 0.497502 -16.7778 69.7201 18.5443 9.41478 55.7404 -3.6463 -6.4658 -121.793 -5.97972 0.341705 76.8482 -9.36497 -0.640642 52.5541 1.80401 -0.826182 1.50777 52.5733 -59.5659 8.9564 -22.0678 -4.6952 
-0.0021597 0.4768320 0.0069375 -3.36004 -3.48818 1.39211 -168.867 -6.59884 -9.64305 -4.84366 2.36726 -30.3173 2.67285 -6.44805 -19.8952 -62.9966 81.7417 93.4311 -109.022 -35.147 -137.235 120.121 -19.2359 -129.22 -60.5495 7.44176 -5.60787 -15.4668 2.27741 -10.2192 75.1213 -29.3432 42.3944 61.923 -34.1616 -46.3796 -56.4737 -24.5604 16.3103 -10.6472 -0.893737 5.11498 -132.303 0.858195 -16.4941 70.3058 18.1137 8.82849 55.1888 -3.5304 -6.36126 -121.193 -5.48549 0.244215 76.421 -9.41945 -0.786658 53.2526 1.8587 -0.822131 2.30015 55.2155 -59.9999 8.20101 -24.8395 -4.08086 
-0.0031826 0.4775550 0.0092425 -3.41561 -2.86793 2.44224 -169.366 -6.58007 -10.5903 -3.69104 2.04029 -29.6857 3.57666 -6.82674 -18.8539 -69.4697 80.669 97.9585 -109.94 -36.4469 -137.194 120.515 -20.3786 -126.596 -60.5106 10.7803 -6.62295 -17.3832 2.22602 -10.2477 75.3818 -28.9963 42.4548 63.8841 -32.2343 -44.4371 -57.7313 -23.859 14.7753 -11.0109 -0.689141 4.32113 -132.337 1.36532 -16.4459 70.6401 18.491 8.47972 54.6177 -3.54149 -6.39549 -120.648 -4.87813 0.154666 75.824 -9.59777 -1.02845 53.9623 1.93673 -0.799297 3.2814 58.1346 -60.8025 7.28876 -28.4617 -3.36143 
-0.0040236 0.4780290 0.0116790 -3.51117 -2.06571 3.76502 -169.757 -6.44702 -11.2144 -2.99896 1.89089 -28.9321 4.39277 -7.25134 -17.9654 -73.462 79.6268 100.856 -110.514 -37.2922 -137.101 122.328 -22.3899 -125.502 -59.5692 13.0579 -7.37914 -19.3707 2.77462 -12.04 75.3921 -28.8039 42.005 66.2871 -29.8772 -42.3097 -58.9693 -23.4887 13.018 -10.7496 -0.259452 2.81446 -132.514 1.75575 -16.9535 70.9923 18.932 8.44167 53.8994 -3.57075 -6.43233 -120.001 -3.96548 0.0480505 75.1213 -9.66447 -1.4468 54.4626 1.99519 -0.769446 4.94186 61.1682 -62.2444 6.09116 -33.018 -2.73313 
-0.0051133 0.4778480 0.0142933 -3.59702 -1.44905 5.16312 -170.537 -6.14593 -11.8448 -1.88313 1.72442 -27.9633 5.14183 -7.5529 -17.0825 -74.9431 79.1577 101.66 -110.529 -37.4688 -136.809 122.864 -23.3355 -124.009 -59.0755 14.5022 -7.96063 -21.0659 3.07503 -12.8211 75.386 -28.8311 42.0519 68.6228 -27.4481 -39.9333 -60.4419 -22.3732 10.2842 -9.97444 0.271827 0.975026 -132.909 2.02192 -16.6555 71.937 18.1464 7.77252 52.8798 -3.37521 -6.21998 -119.499 -3.30865 -0.0901262 74.8456 -9.81488 -1.74444 54.6882 2.07097 -0.710581 7.19738 64.7982 -64.1846 4.84636 -38.8594 -2.17034 
-0.0061015 0.4779800 0.0164583 -3.67759 -0.92318 6.51734 -171.38 -5.68683 -12.7681 -0.70188 1.64835 -26.4552 6.07547 -7.66674 -16.5712 -77.3978 78.6335 103.477 -110.092 -37.0187 -136.51 124.81 -24.3066 -123.929 -59.0516 13.8978 -6.46653 -21.8003 3.58153 -14.4047 75.2883 -29.0465 42.2462 72.4136 -22.8636 -36.921 -63.0763 -20.0752 5.4773 -8.5354 1.18548 -2.5136 -133.135 1.90475 -17.8479 71.8257 18.6228 8.56634 52.7667 -3.52088 -6.37181 -118.998 -2.69196 -0.184176 74.4751 -9.54829 -1.98334 55.0077 2.08142 -0.716317 10.1719 68.5447 -66.7593 3.57083 -45.8931 -1.64678 
-0.0071312 0.4781070 0.0183257 -4.04883 -0.72452 7.87578 -171.694 -5.319 -13.4861 0.384264 1.58991 -25.1465 6.71816 -7.60434 -15.9636 -80.2996 77.9724 106.266 -109.945 -36.8204 -136.494 126.663 -25.0738 -123.182 -58.0879 15.0715 -6.35718 -23.1025 3.85779 -15.1462 75.0591 -29.5531 42.6933 77.5076 -17.1656 -33.8758 -68.0982 -13.8623 -0.726017 -3.7667 1.72945 -7.0751 -132.945 1.75184 -19.0392 71.6127 19.7464 9.74949 52.6137 -3.87961 -6.78651 -118.116 -2.29992 -0.142854 74.3152 -9.59026 -2.16371 55.2169 2.14044 -0.660681 15.0641 72.6904 -70.8465 2.12468 -54.1957 -1.4916 
-0.0087074 0.4775810 0.0200878 -4.19143 -0.86519 9.37874 -171.815 -5.20181 -14.0362 0.680029 1.41919 -23.6067 7.60488 -7.36446 -15.5707 -82.9193 77.5199 109.069 -109.567 -36.1818 -136.699 128.792 -26.317 -122.952 -57.4397 14.8876 -6.09977 -23.6751 4.81208 -17.71 74.7554 -30.0443 42.8312 79.4397 -15.503 -30.7027 -73.2762 1.31216 -5.91177 6.14419 -0.16819 -4.08808 -133.489 1.30335 -19.7879 72.1829 19.7816 10.5731 52.6441 -4.02047 -6.93609 -117.654 -2.22355 -0.0903689 74.6376 -9.53148 -2.23019 55.4668 2.15359 -0.658848 23.7806 76.9933 -78.878 0.964883 -63.5859 -1.33077 
-0.0106427 0.4767890 0.0217185 -4.11207 -1.44427 11.2761 -171.773 -5.25081 -13.7606 0.782522 1.13028 -22.6924 8.58645 -7.07759 -14.6738 -85.6893 77.1087 111.463 -109.501 -35.6553 -137.551 128.729 -26.622 -122.819 -57.9099 15.2731 -5.68257 -23.8268 4.83233 -17.8856 74.4149 -30.7417 43.3253 76.196 -18.9634 -27.2907 -76.3534 11.9359 -8.60426 16.4791 -1.23284 -2.45219 -134.67 0.581935 -19.7955 73.2603 19.3792 10.854 52.8412 -4.01696 -6.90705 -117.224 -2.43224 0.105091 75.1609 -8.81883 -2.17855 54.9699 1.97484 -0.778912 44.6553 80.8439 -99.2709 0.233044 -73.7415 -1.02983 
-0.0127323 0.4759590 0.0230687 -3.94919 -2.05526 13.1884 -171.78 -5.1376 -13.5275 1.16826 0.934231 -21.6619 9.28445 -6.88573 -13.5451 -87.2719 76.8324 112.965 -109.775 -35.2896 -139.033 128.101 -26.457 -122.368 -58.5846 15.277 -5.44666 -23.5298 4.8026 -17.9962 74.2527 -31.6481 44.8502 71.3489 -24.679 -25.3577 -79.4904 19.647 -9.59616 26.1653 -1.80571 -0.712883 -136.258 -0.173837 -20.1149 74.6557 18.7853 11.2053 53.601 -4.00213 -6.84905 -116.942 -2.64587 0.054521 75.8172 -7.68628 -2.00462 54.7705 1.74423 -0.987127 80.8124 82.3124 -134.831 -1.08324 -83.8125 -1.55163 
-0.0149230 0.4751360 0.0248059 -3.86242 -2.65425 14.8585 -171.355 -5.08866 -13.0146 1.01291 0.910553 -21.2886 10.3314 -6.69074 -12.2342 -89.9873 76.0211 115.197 -110.339 -35.0714 -141.011 127.467 -26.4143 -122.326 -58.3723 17.3728 -5.97703 -24.4236 4.89868 -18.1529 74.2243 -32.4235 46.445 68.277 -27.9378 -24.9331 -83.5956 23.3397 -10.5957 32.8868 -2.27103 -2.6726 -137.809 -1.04013 -20.0881 76.4536 17.37 11.14 53.6506 -3.83532 -6.63858 -116.5 -2.97785 -0.315195 76.4275 -6.24239 -1.64273 54.9958 1.4827 -1.26495 116.785 80.3876 -170.101 -178.992 -85.8947 -178.878 
-0.0173765 0.4742160 0.0271749 -3.80742 -3.25225 16.2562 -170.79 -5.13546 -12.4686 0.519929 0.924273 -21.2671 11.4226 -6.52354 -10.502 -91.3124 75.6869 116.456 -110.833 -34.804 -142.894 126.522 -26.4978 -122.468 -58.8247 17.5885 -5.94659 -23.6103 4.47783 -17.3732 74.6886 -32.5794 48.2796 64.2102 -29.0664 -27.9376 -86.3886 29.3765 -12.2422 37.9666 -2.58233 -1.56153 -139.26 -1.96531 -19.9804 77.996 15.7727 11.0683 53.4615 -3.66926 -6.4233 -116.062 -3.15958 -0.150739 77.1881 -5.20189 -1.53018 54.8305 1.29574 -1.45232 136.984 76.1758 170.364 179.856 -75.8194 -179.633 
-0.0200881 0.4734270 0.0301836 -3.67154 -3.52462 17.2463 -170.651 -4.94027 -12.2769 0.388679 1.1281 -21.2309 12.4996 -6.52668 -8.81151 -92.8253 74.8914 117.461 -111.413 -34.6311 -144.797 126.076 -26.5702 -122.327 -58.4384 17.734 -6.23194 -23.4094 4.56655 -17.7079 74.857 -32.8076 49.2996 61.2609 -27.8474 -31.9736 -88.0475 32.4354 -13.327 39.4766 -2.58924 -0.520053 -140.263 -2.37318 -20.0595 78.6554 15.2533 11.1571 52.6807 -3.62734 -6.37109 -115.598 -3.27874 0.0843645 77.5725 -4.6257 -1.51126 54.6823 1.17838 -1.55831 147.998 71.3235 159.876 179.333 -66.0374 -179.84 
-0.0228399 0.4727880 0.0338062 -3.60150 -3.66164 18.0230 -170.733 -4.73502 -11.9775 0.410429 1.31619 -21.4322 13.3298 -6.47513 -7.49535 -95.2096 72.9958 119.764 -111.75 -34.5015 -145.959 125.419 -26.6813 -122.425 -58.2185 17.2132 -5.92819 -22.9123 4.19896 -16.9122 74.8282 -32.7471 49.0816 58.0341 -25.4454 -35.4059 -90.2027 27.4141 -13.2411 37.0855 -3.68055 -8.74709 -141.026 -2.6477 -20.4053 78.4582 14.677 11.5219 52.4073 -3.63394 -6.3688 -114.982 -3.29474 0.528298 77.7658 -4.43861 -1.59715 54.4441 1.13391 -1.58418 154.433 65.9472 153.788 178.919 -56.5467 -179.904 
-0.0257225 0.4719070 0.0382713 -3.55275 -3.63219 18.5084 -171.046 -4.37552 -11.8764 0.636072 1.63788 -21.6482 14.3451 -6.5472 -5.98463 -97.5243 70.9965 120.908 -112.077 -34.3776 -147.076 125.839 -26.9395 -122.122 -56.7079 17.1006 -6.37846 -22.9054 4.21236 -16.9114 74.9036 -32.2703 48.339 55.5798 -21.9303 -37.8517 -91.2214 18.8275 -12.3679 31.7146 -3.82195 -18.0561 -141.605 -2.42394 -20.7669 77.6186 14.622 11.9614 52.4187 -3.67547 -6.40777 -114.397 -3.39747 1.03272 77.9334 -4.7673 -1.7035 54.5242 1.16759 -1.55817 158.567 60.4065 149.754 178.555 -47.5106 -179.786 
